<?xml version="1.0" encoding="UTF-8"?><svg id="Layer_2" xmlns="http://www.w3.org/2000/svg" width="176.7mm" height="170.1mm" xmlns:xlink="http://www.w3.org/1999/xlink" viewBox="0 0 500.9 482.3"><defs><filter id="drop-shadow-1" x="77.4" y="119" width="364.7" height="230.9" filterUnits="userSpaceOnUse"><feOffset dx="2.2" dy="6.5"/><feGaussianBlur result="blur" stdDeviation="0"/><feFlood flood-color="#f4b0d0" flood-opacity=".1"/><feComposite in2="blur" operator="in"/><feComposite in="SourceGraphic"/></filter></defs><g id="Layer_1-2"><path d="M31.9,160.7c1.4.2.5-1.5.8-2.5s1.3-.4,1.5-1c2.9-11.1,8-18.9,12.4-29.1s7.9-21.5,12.1-31.9,5.6-10.3,4.8-12.8-2.8-4.2-3.3-6.6.4-6.8-.2-9.7-1.5-2.1-1.6-3.8,2.6-9.2,3.3-10.4c1.9-3.4,5.3-1.8,5.7.7s-2.1,9.1-2.5,10.2-1.9,2.1-2.3,3c-1.4,3.1.1,12.4,3.4,14.4.2-1.4.9-2.8,1.5-4,2.6-4.4,6.7-9,9.8-13.3s5.3-6.9,5.8-8.5-.6-8.1-.4-11,1.5-12.5,3.5-15.5,2.4-3.2,4.1-2c3,2.1-4.5,11.3-5.2,14.6s-.2,6.4.6,9.3c2.8-1.6,4.3-4.6,6.4-6.9s4.1-3,4.6-3.7c1-1.7-.2-8.1,1.2-9.1s4.1.4,4.4.8c.5.7-.2,2.6,0,2.9s8-2.4,6.5,2.3-6.9,3-9.6,4.2-8.9,8.1-9.8,9.3c-.5,1.8-9.2,12.3-8.4,13.1s4.5-2.5,5.2-3,1.9-.7,3-1.4c1.7-1.2,7.2-6.6,8.3-6.9,2.4-.7,3.1,1.8,2.2,3.7-2.1,4.1-8.3,5.1-11.9,6.9s-2.7,2.4-3.5,2.9c-3.3,2.1-7.5,3.7-10.4,6.9-4.6,5.1-12.6,23.4-14.5,30.3s-.9,2.5,0,3c2.3-3,4.5-6.1,6.8-9.2C170.3-39.9,375.7-30.5,466.4,116.5c7.7,12.4,15.9,29.1,20.4,43.3,4.5,13.9,9.3,29.9,11.5,45.4,16,112.5-44.9,216.9-148.8,259.8-3,1.2-6.7,3.1-10.3,4.3-44,14.6-89.9,17.1-135.4,6.9-2.5-.6-4.7-.8-6.9-1.3s-2.5-1.1-4.5-1.7c-80.7-23.4-145.9-89.5-166.4-171.2-3.8-15.1-6.5-31-7.9-46.7-1.8-20.1,4.8-38.9-8.6-57-2.2-2.9-4.7-3.5-7-5.5-3.3-2.9-4.1-8.4,1.2-6.5,4.8,1.6,3.5,3.7,5.1,7s6.4,7.7,7.7,12l3.1,8.6c-.3-2.4,1.1-4.3,1.5-6.5s-.3-4.1,0-6,1.2-1.9,1.5-3.1c1.5-7.9-8.6-12.4-13.6-16.7,0-1.4-2.5-3-2.3-3.7.8-4.2,5-7,9.3-6.3s3.1,1.8,4.4,3.8,1.1.7,1.4,1.2c.8,1.8,1.2,4.9,1.9,6.3s1.8-.2,1.9-1.1c2-13.3-2.3-39-9.3-50.6s-6.7-7.5-7.8-9.7-.7-2.8-.4-3,5.5-.1,6.4,0c3.2.6,9.3,4.2,11.2,7s5.9,11.8,5.9,13.1v22.4ZM22,216.4c-.3,3.5.2,7.4,0,11l6.1-14.6c6.4-7.8,13.4-12.5,23.9-11.3,3.2.4,3.3,1.5,1.5,3.9-5.4,7.1-14.8,12.8-20.9,20.1s-11.9,16-11.4,24.3c1.7,32.6,8.8,61.7,22,91.2,42,93.8,140.7,147.3,242.4,137.5,26.8-2.6,57.2-12,81.3-24.2,102.1-51.4,154-169.2,122.2-279.5C455.6,62.1,346.3-10.6,228.6,5.1,152.2,15.3,83.2,61.7,48.1,130.6c-.4.8-3,4.7-1.1,5,4.1-8.7,16.5-20.7,26.2-21.9,4.1-.5,13.1.3,15.5,4.1s-3.8,1.9-6.5,1.9c-19.2,0-38.4,19.1-45.5,35.8s-6.6,18.5-8.4,26.5-.8,5.2-1.1,7.6l6.1-9.5c7.1-9.5,21.4-18,33.2-19.9,5.5-.9.7,3.7-1.1,5.1-12.4,9.8-25.8,16.8-35.9,30-5.8,7.6-6,10.3-6.9,19.7,0,.7-.7,1.3-.7,1.6Z" fill="#d49ca9"/><path d="M340.5,257.3v3.6c12.8,0,22,2.3,27.5,6.9,5.6,4.6,8.3,12,8.3,22.3s-3.1,20.7-9.2,28.8c-4.5,5.8-10.2,10.4-17.1,13.7-7,3.3-14.4,5-22.3,5-20.1,0-37.1-9.4-51-28.1-7.2-9.7-12.6-20.8-16.4-33.4-3.7-12.6-5.6-26.1-5.6-40.3,0-29.8,7.8-56.3,23.4-79.5,7.7-11.3,16-19.5,24.9-24.6,8.9-5,19.5-7.6,31.9-7.6s29.5,5.6,40.7,16.9c11.2,11.3,20.4,28.5,27.6,51.5l3.6-.3-1.9-67.8h-4.1c-2.2,6.8-5.4,10.1-9.5,10.1s-4-.5-6.2-1.4l-9.2-4.2c-8-3.5-15.6-6.1-22.7-7.6-7.1-1.6-14.8-2.3-23.2-2.3-14.3,0-28,2.3-40.8,6.9-12.9,4.6-24.3,11.1-34.1,19.5-12,10.3-21.3,23.4-27.9,39.2l-22.1-64.6h-56.1v9.1c10,0,19.8,4.8,25.4,14.7l-60.8,168.5c-6,16.8-4.3,28.6-35.6,28.4l-.5,2.8h63.9l.5-2.8c-36.1,0-26.4-13.4-22.8-27.9l13.9-42.7h88.2c.4,1.7.9,3.4,1.4,5.1,3.7,12.1,9,22.4,15.8,31.2,9.1,11.6,21.1,20.6,35.8,26.8,14.7,6.2,31.2,9.4,49.5,9.4s26.2-.8,37.9-5c14.9-5.4,22.9-15,31.9-21.2,3.5-2.4,4.3-3.8,8.7-3.6,5.8,0,5.8,12.8,6.2,16.8h1.7c-.4-7.9-.6-25-.6-28.8,0-13.6,1-22.7,3-27.3,1.8-4.2,4.5-7.1,8.2-8.8,3.7-1.7,10.1-3,19.3-3.8v-3.6h-99.5ZM136.3,261l40.3-113.9,38.5,113.9h-78.8Z" fill="#d49ca9" filter="url(#drop-shadow-1)"/><path d="M186.2,281.1c-.2,0-.5-.1-.8-.3-1.3-.3-2.9-.5-4.7-.7.7-4.2,1.8-9.9,3.4-17.3.8-3.7,2.7-11.6,5.8-23.7.1-.5.3-.8.5-.9,1.6-.1,2.4-.2,2.6-.3,4.7-.2,7.5-.3,8.5-.3,9.3,0,15,0,17,.3.4,0,1,0,1.5-.2.2,0,.4-.1.4-.3,0-.2,0-.4-.2-.5-.2-.2-.4-.4-.5-.4-.6-.2-1-.3-1.4-.3-2.6-.3-4.3-.4-5.1-.4-2.3,0-5.6-.1-9.8-.2-4.3,0-8.2.1-11.7.3h-1.1c0-.2,0-.4,0-.5,0-.2,0-.4.1-.5,0-.1,0-.3,0-.5,0-.2,0-.3,0-.4.2-1.5.4-2.7.5-3.6,0-.4,0-.8,0-1.3-.1-.4-.3-.7-.6-.8-.3-.1-.6,0-1,.2-1,.6-1.5,1.5-1.6,2.5,0,.3.1.6.3.7.3.1.5.3.4.7,0,1.2-.3,2.4-.7,3.7-2.1.2-3.2.3-3.2.3-3.7.4-6.9.9-9.7,1.5-.5.1-1.4.4-2.6.8,0-.9.1-1.8,0-2.7-.1-1.1-.4-2.2-.8-3.1-.8-1.9-2.3-3.1-4.2-3.6-1.2-.3-2.5-.4-3.8,0-1.4.3-2.5.7-3.4,1.1-6.6,2.9-11.8,7.4-15.8,13.5-1,1.5-1.7,3-2.1,4.6-.9,3.2-.2,5.9,2.2,8.2.6.6,1.4,1.2,2.3,1.9,1.3,1,3.3,2.1,5.9,3.5,4.1,2.1,6.7,3.6,8,4.5,2.6,1.7,4.7,3.5,6.2,5.4,1.2,1.6,2.1,3.2,2.4,4.6.3,1.1.3,2.2,0,3.3l-1,.2c-.2,0-.7,0-1.7.1-1,0-1.7.2-2.2.2-4.6.6-9.1,1.5-13.3,2.7-3.2,1-5.7,2-7.7,3-1.5.8-2.7,1.8-3.6,2.8-.7.8-1.2,1.6-1.4,2.4-.3,1.1.1,2,1.2,2.5.6.3,1.3.5,2.1.5,1.9.1,3.9,0,6.2-.4,4.2-.7,8.4-2.1,12.4-4,3.7-1.7,6.7-3.8,8.9-6.1.4-.5,1-.7,1.7-.7,1.9,0,3.3,0,4.2,0,.6,0,1.1,0,1.7,0-.2,1.5-.4,2.8-.6,4.1,0,.8,0,2.3,0,4.2s.2,1.6.6,2.3c.4.7.9.9,1.6.6.3-.1.6-.3.8-.5.6-.6,1-1.2,1.2-1.9.2-.5.2-.7.1-.8,0-.1-.4-.2-.9-.3l-.3-.3c-.3-1-.4-1.9-.3-2.7.3-2,.4-3.5.6-4.5,1,0,1.8.2,2.5.3.2,0,.4.1.6.2.3,0,.5,0,.6,0,1.1.2,2-.2,2.7-1.3.4-.7.3-1.2-.5-1.5ZM166.4,283.9c-1.6,1.2-3.4,2.2-5.6,3.1-3.5,1.5-7.1,2.6-10.8,3.2-2.3.4-4.2.5-5.7.4-.5,0-.9-.2-1.4-.3,0,0-.3-.2-.7-.5.2-.3.7-.6,1.5-1.1,1.1-.6,2.7-1.2,4.6-1.8,3.7-1.2,7.4-2.2,11.2-2.8,1.4-.2,3-.5,4.8-.7,0,0,.8,0,2.3-.2.1.2,0,.4-.3.6ZM177,279.9c-.3,0-.8,0-1.6,0-.8,0-1.4,0-1.9-.1-.3,0-.5,0-.5-.3v-.3c1.1-2.5.9-5-.4-7.7-.7-1.5-1.7-2.9-3-4.2-1.9-2-4.1-3.7-6.8-5.1-.9-.5-3-1.7-6.4-3.5-2.5-1.4-4.4-2.4-5.5-3.1-1.3-.9-2.3-1.7-3.1-2.5-1.9-2-2.3-4.3-1.4-6.8.5-1.4,1.3-2.8,2.3-4.1,2.4-3.3,5.4-5.9,8.9-7.8,2-1.1,3.7-1.8,5.3-2.1,2.3-.4,4.1.1,5.5,1.6,1.1,1.1,1.7,2.4,1.9,4.1.3,2.4,0,4.6-1,6.7,0,.2-.2.4-.3.7-.2.3-.3.5-.3.7-.1.2-.3.6-.5,1.2-.1.3,0,.5,0,.7.2.2.5.1.8,0,.6-.4,1-.9,1.3-1.4.7-1.4,1.1-2.3,1.4-2.7.4-.8.7-1.7.9-2.5.5,0,.9-.2,1.3-.4.5-.2.9-.4,1.4-.6.6-.2,1.3-.4,2.1-.6,2.5-.4,5.7-.8,9.6-1.2,0,0,.3,0,.8,0,0,.4-.1,1-.3,1.9-2.1,7.7-3.3,12.2-3.6,13.5-1.4,5.4-3,12.3-4.8,20.7-.4,1.9-.7,3.7-1,5.5-.3,0-.6,0-.9,0Z" fill="#1d1d1b"/><path d="M223.7,287.3c-.7.2-1.3,0-1.9-.7-.3-.3-.6-.7-.8-1.2-.2-.5-.4-1-.5-1.7-.5-1.8-.6-4-.6-6.6,0-3.4.6-7.7,1.5-12.7,1-5.5,2.4-11.1,4.1-17.1,2.5-8.9,4.1-14.8,4.7-17.6,0-.2,0-.4,0-.6.2-1.5.4-2.7.5-3.6,0-.4,0-.8,0-1.3-.1-.4-.3-.6-.6-.8-.3-.1-.6,0-1,.2-1,.6-1.5,1.5-1.6,2.5,0,.3.1.6.3.7.3.1.5.3.4.7,0,.9-.1,1.9-.4,2.9,0,.1-1,3.4-2.8,9.9-1.4,4.6-2.8,9.1-4.4,13.5,0,0-.2.5-.6,1.4-.6-.2-1-.3-1.3-.3-1.9-.4-3.7-.2-5.4.8-1.2.7-2.2,1.6-3.1,2.6-1.1,1.3-2,2.7-2.8,4.4,0,.2-.2.3-.3.5-.7,1.5-1.6,2.6-2.7,3.4-1.1.8-1.9.6-2.5-.5-.3-.5-.5-1.1-.6-1.9-.2-1.2-.1-2.6.2-4.1,0-.4.1-.8.3-1.3.1-.5.2-1,.3-1.5,0-.5.2-1,.3-1.3,0-.4,0-.7,0-1s0-.4-.2-.5c-.1-.1-.4-.1-.6,0-.4.1-.7.4-1,.8-.7,1-1.2,1.8-1.4,2.3-.4.7-1,1.9-1.8,3.4-.8,1.5-1.4,2.7-1.8,3.5-.7,1.3-1.7,3-3,5.1-.3.6-.7,1-1,1.2l-.3-.5v-1.7c.2-1.4.4-2.5.7-3.3.2-.8.5-1.9,1-3.4.4-1.5.7-2.5.9-3.1.2-.7.3-1.3.3-1.8,0-.3-.1-.6-.3-.7-.2-.1-.5-.1-.8,0-.2.1-.3.2-.4.3-.7.7-1.2,1.5-1.5,2.4-.2.5-.2.8,0,1,.2.3.2.8,0,1.4-1.1,3.2-1.9,5.8-2.3,7.9-.3,1.6-.3,2.8-.2,3.6.2.8.5,1.3,1,1.5.5.2,1,0,1.7-.4.6-.5,1.2-1,1.6-1.6,1-1.4,1.8-2.6,2.4-3.6.1-.2,1.2-2.2,3.2-6.1,0-.1.1-.2.2-.4,0-.1.2-.2.2-.3,0,2.7,0,4.2,0,4.6,0,.7.3,1.5.6,2.2.8,1.8,2.2,2.2,4.1,1.3.6-.3,1.1-.7,1.7-1.3.3-.3.5-.5.8-.8-.1,1-.2,2,0,2.8.1,1.5.6,2.7,1.5,3.5.6.6,1.4.8,2.2.7.7-.1,1.4-.4,1.9-.8,1-.7,1.9-1.7,2.8-2.8,1.2-1.5,2.3-3.2,3.4-5.3,0,0,.3-.5.8-1.3h0c-.9,5.5-1.4,8.4-1.4,8.7-.6,3.4-.7,6.9-.5,10.3.1,1.6.4,2.9.8,4,.5,1.2,1.3,2.1,2.3,2.6,1,.5,1.9.5,2.8,0,.9-.6,1.5-1.4,1.8-2.4,0,0,0-.3-.2-.8-.4,0-.6,0-.7,0ZM215.4,266.2c-.5.8-1.2,1.9-1.9,3-.3.4-.8.9-1.3,1.3-1,.8-1.8.7-2.5-.3-.3-.4-.5-.8-.5-1.2-.2-.8-.3-1.4-.3-1.9,0-1.7.4-3.2,1-4.6.7-1.6,1.8-2.8,3.3-3.5,1.7-1,3.6-1,5.7,0-1.1,2.8-2.2,5.2-3.5,7.3Z" fill="#1d1d1b"/><path d="M231.7,249.2c.3.2.7.1,1.2-.2.1,0,.2-.1.2-.2,1.1-1,1.9-2.1,2.3-3.5.2-.7,0-1.2-.5-1.5-.5-.3-1-.3-1.5,0-1.4,1.2-2.1,2.6-2.1,4.1,0,.6.2.9.5,1.1Z" fill="#1d1d1b"/><path d="M253.7,261.5c0,0-.2-.1-.4-.3-.2-.1-.6,0-1,.3-1.2.7-2.5.7-3.7,0,0-.2.3-.7.7-1.6.4-.9.6-1.4.6-1.6.4-1.5.4-2.8.2-3.9-.2-.8-.6-1.3-1.2-1.6-.6-.3-1.3-.2-2.1.2-.3.2-.6.3-.8.5-.7.7-1.2,1.2-1.5,1.7-.4.6-.8.9-1.2,1.1-.6.3-1.2.8-1.7,1.3-1.3,1.4-2.3,3-3,4.7,0,0,0,0-.1,0-.3.2-.4.3-.5.3-3.2,2.5-5.1,4-5.7,4.5-.5.5-1.1.8-1.8,1-1.5.6-2.5.1-3-1.4-.2-.6-.3-1.2-.3-1.9,0-1.6.1-3.2.5-4.7.2-.7.4-1.5.8-2.5.2-.6.6-1.1,1.2-1.4.6-.3,1.1-1,1.4-2.1,0-.2,0-.4-.2-.6-.2-.2-.4-.3-.6-.2-.5.1-.9.3-1.1.5-.8.7-1.4,1.4-1.8,1.9-2.5,3.8-3.6,8-3.4,12.7,0,1.1.4,2,1,2.9.6.7,1.3,1.1,2.2,1.2.7,0,1.4,0,2-.4,1.1-.6,1.9-1,2.4-1.4,1.9-1.4,3.9-3.1,6-5.1,0,.4,0,.7,0,1.1,0,.7,0,1.5.3,2.3.2.8.6,1.3,1.2,1.6.6.3,1.2.3,2,0,.4-.2.9-.4,1.4-.7.4-.3.9-.8,1.4-1.3,1-1,2-2.3,3.1-4.1,0,0,.1-.1.2-.3,0-.1.1-.2.2-.3,0-.1.2-.2.2-.3h3.3c.6-.1,1.2-.4,1.7-.8.7-.6,1-1,.9-1.3,0-.2,0-.4,0-.4ZM243.4,266.5c-.7.6-1.3.8-1.8.6-.5-.2-.8-.7-.9-1.5-.3-2.1.2-3.9,1.4-5.4.4-.6,1-.8,1.5-.8.3,1.4,1.1,2.6,2.4,3.7-.7,1.4-1.6,2.5-2.6,3.4ZM247.1,260.8c-.3,0-.7-.3-1.1-1.1-.5-.8-.7-1.3-.7-1.6-.2-.4,0-.9.9-1.6.3-.4.6-.5,1-.3.1.1.3.3.4.5.2.4,0,1.7-.5,4Z" fill="#1d1d1b"/></g></svg>