<?xml version="1.0" encoding="UTF-8"?><svg id="Layer_2" xmlns="http://www.w3.org/2000/svg" width="323mm" height="52.2mm" viewBox="0 0 915.6 147.8"><g id="Layer_1-2"><path d="M212.4,95.3c2.4,6.7,8.4,9.7,13.4,9.7v3.7h-38.5v-3.6c5.1,0,11-3.1,8.6-9.6l-5.9-16.2h-33.5l-6.2,17.1c-1.4,5.8,4.1,8.6,8.9,8.6v3.6h-25.6v-3.6c5.1,0,11-3,13.4-9.7l24.3-66.7c-2.3-4-5.1-5.8-9.1-5.8v-3.6h22.5l27.6,76.1ZM157.9,75.7h30.9l-15.4-42.5-15.5,42.5h0Z" fill="#b7697b"/><path d="M226.7,105c4.7,0,9.1-2.3,9.5-8.1v-34.1c-.3-5.8-4.8-8.1-9.5-8.1v-3.6l22.7-3.2,3.3,3.6v13.1c4.6-18.5,14.8-39.2,29.8-39.5,16.9,0,16.8,19.8-.1,19.8,3-5.2-3.2-5.8-6.8-4.9-9.3,2.3-20.3,16.2-22.9,43.7v13.3c.4,5.9,4.8,8.1,9.5,8.1v3.6h-35.4v-3.7ZM268.7,54.8v-3.6l22.7-3.2,3.3,3.6v45.4c.3,5.9,4.8,8.1,9.5,8.1v3.6h-35.4v-3.6c4.7,0,9.1-2.3,9.5-8.1v-34.1c-.4-5.8-4.8-8.1-9.5-8.1h0Z" fill="#b7697b"/><path d="M370.7,71.4h-47.5c-.4,3.3-.5,6.8-.3,10.1,1.5,25.1,34.9,23.4,39.8,12.6l3.1,2.9c-5.3,7.7-14.3,13.1-26.9,13.1-43.5,0-43.6-63.7,0-63.7s29.2,11.7,31.9,25ZM353.9,67.8c-2-9.8-7.1-17.7-15.1-17.7s-13,7.8-15,17.7h30.1Z" fill="#b7697b"/><path d="M371.2,22.4l22.7-3.2,3.3,3.6v74.2c.4,5.8,4.8,8.1,9.5,8.1v3.6h-35.4v-3.6c4.7,0,9.1-2.3,9.5-8.1v-62.9c-.3-5.8-4.8-8.1-9.5-8.1v-3.7Z" fill="#b7697b"/><path d="M473.2,71.4h-47.5c-.4,3.3-.5,6.8-.3,10.1,1.5,25.1,34.9,23.4,39.8,12.6l3.1,2.9c-5.3,7.7-14.3,13.1-26.9,13.1-43.5,0-43.6-63.7,0-63.7s29.2,11.7,31.9,25ZM456.4,67.8c-2-9.8-7.1-17.7-15.1-17.7s-13,7.8-15,17.7h30.1Z" fill="#b7697b"/><path d="M599.6,21.6l2.8,21-3.9.2c-1.6-11.6-15.2-21.5-28.6-21.5-41.1,0-41.1,85.1,0,85.1s20.7-12.5,20.7-26.6c-.4-5.8-4.8-8.1-9.5-8.1v-3.6h35.4v3.6c-8.2,0-9.5,3.8-9.5,9.9v15.3c.3,5.8,4.8,8.1,9.5,8.1v3.6h-17.8c-3.3,0-7.1-.3-8-3.3-5.4,3-12.2,4.7-20.9,4.7-62.9,0-63-92.4,0-92.4s24.8,5.1,29.7,3.8Z" fill="#b7697b"/><path d="M657.7,64.1c0-10.3-4.6-14.6-9.8-14-8.6.9-11,12.5-3.6,16.8-2.1,2-4.3,2.9-6.4,2.9-6.6,0-10.6-5.9-9.8-11.7,2.2-16.5,46.2-18.5,46.2,13.7v21.9c.4,5.8,4.8,8.1,9.5,8.1v3.6l-22.7,3.2-3.3-3.6v-6.8c-4.2,7.8-11.1,11.5-18.1,11.5-26.1,0-25.2-38.1,4.3-39.4,4.7-.7,12.3-.7,13.8-6.3ZM657.7,87.6v-18.4c-2.6,2.7-6.7,3.6-10.7,4.7-16.4,4.1-13.1,28.8-.9,28.8s10.1-4,11.6-15h0Z" fill="#b7697b"/><path d="M712.6,75.5v21.5c.4,5.8,4.8,8.1,9.5,8.1v3.6h-35.4v-3.6c4.7,0,9.1-2.3,9.5-8.1v-34.1c-.4-5.8-4.8-8.1-9.5-8.1v-3.6l22.7-3.3,3.2,3.6v6.3c3.2-6.5,9-11.1,19.7-11.3,16.9,0,16.8,19.8-.1,19.8,6.4-11-19.6-22.3-19.6,9.3Z" fill="#b7697b"/><path d="M804.7,61.2c-1.5,7.1-8.5,7.9-13.7,6.5,5-8.6-1.2-17.6-10.1-17.6s-15.3,12.2-16,25.2c-1.4,26.5,27.4,33.6,38.6,20.8l3,2.8c-5.4,6.7-13.9,11.2-25.5,11.2-43.5,0-43.6-63.7,0-63.7s25.3,8.5,23.9,14.7Z" fill="#b7697b"/><path d="M810.8,54.8v-3.6l22.7-3.3,3.3,3.6v45.5c.4,5.8,4.8,8.1,9.5,8.1v3.6h-35.4v-3.6c4.7,0,9.1-2.3,9.5-8.1v-34.1c-.4-5.8-4.8-8.1-9.5-8.1h0ZM837.5,34.8c0,4.4-4.2,8-9.4,8s-9.5-3.6-9.5-8,4.2-8,9.5-8,9.4,3.6,9.4,8Z" fill="#b7697b"/><path d="M887,64.1c0-10.3-4.6-14.6-9.8-14-8.6.9-11,12.5-3.6,16.8-2.1,2-4.3,2.9-6.4,2.9-6.6,0-10.6-5.9-9.8-11.7,2.2-16.5,46.2-18.5,46.2,13.7v21.9c.4,5.8,4.8,8.1,9.5,8.1v3.6l-22.7,3.2-3.3-3.6v-6.8c-4.2,7.8-11.1,11.5-18.1,11.5-26.1,0-25.2-38.1,4.3-39.4,4.7-.7,12.3-.7,13.8-6.3ZM887,87.6v-18.4c-2.6,2.7-6.7,3.6-10.7,4.7-16.4,4.1-13.1,28.8-.9,28.8s10.1-4,11.6-15h0Z" fill="#b7697b"/></g><g id="PRINT"><path d="M47.4,87c-.2,0-.5-.1-.8-.3-1.3-.3-2.9-.5-4.7-.7.7-4.2,1.8-9.9,3.4-17.3.8-3.7,2.7-11.6,5.8-23.7.1-.5.3-.8.5-.9,1.6-.1,2.4-.2,2.6-.3,4.7-.2,7.5-.3,8.5-.3,9.3,0,15,0,17,.3.4,0,1,0,1.5-.2.2,0,.4-.1.4-.3,0-.2,0-.4-.2-.5-.2-.2-.4-.4-.5-.4-.6-.2-1-.3-1.4-.3-2.6-.3-4.3-.4-5.1-.4-2.3,0-5.6-.1-9.8-.2-4.3,0-8.2.1-11.7.3h-1.1c0-.2,0-.4,0-.5,0-.2,0-.4.1-.5,0-.1,0-.3,0-.5,0-.2,0-.3,0-.4.2-1.5.4-2.7.5-3.6,0-.4,0-.8,0-1.3-.1-.4-.3-.7-.6-.8-.3-.1-.6,0-1,.2-1,.6-1.5,1.5-1.6,2.5,0,.3.1.6.3.7.3.1.5.3.4.7,0,1.2-.3,2.4-.7,3.7-2.1.2-3.2.3-3.2.3-3.7.4-6.9.9-9.7,1.5-.5.1-1.4.4-2.6.8,0-.9.1-1.8,0-2.7-.1-1.1-.4-2.2-.8-3.1-.8-1.9-2.3-3.1-4.2-3.6-1.2-.3-2.5-.4-3.8,0-1.4.3-2.5.7-3.4,1.1-6.6,2.9-11.8,7.4-15.8,13.5-1,1.5-1.7,3-2.1,4.6-.9,3.2-.2,5.9,2.2,8.2.6.6,1.4,1.2,2.3,1.9,1.3,1,3.3,2.1,5.9,3.5,4.1,2.1,6.7,3.6,8,4.5,2.6,1.7,4.7,3.5,6.2,5.4,1.2,1.6,2.1,3.2,2.4,4.6.3,1.1.3,2.2,0,3.3l-1,.2c-.2,0-.7,0-1.7.1-1,0-1.7.2-2.2.2-4.6.6-9.1,1.5-13.3,2.7-3.2,1-5.7,2-7.7,3-1.5.8-2.7,1.8-3.6,2.8-.7.8-1.2,1.6-1.4,2.4-.3,1.1.1,2,1.2,2.5.6.3,1.3.5,2.1.5,1.9.1,3.9,0,6.2-.4,4.2-.7,8.4-2.1,12.4-4,3.7-1.7,6.7-3.8,8.9-6.1.4-.5,1-.7,1.7-.7,1.9,0,3.3,0,4.2,0,.6,0,1.1,0,1.7,0-.2,1.5-.4,2.8-.6,4.1,0,.8,0,2.3,0,4.2s.2,1.6.6,2.3c.4.7.9.9,1.6.6.3-.1.6-.3.8-.5.6-.6,1-1.2,1.2-1.9.2-.5.2-.7.1-.8,0-.1-.4-.2-.9-.3l-.3-.3c-.3-1-.4-1.9-.3-2.7.3-2,.4-3.5.6-4.5,1,0,1.8.2,2.5.3.2,0,.4.1.6.2.3,0,.5,0,.6,0,1.1.2,2-.2,2.7-1.3.4-.7.3-1.2-.5-1.5ZM27.6,89.8c-1.6,1.2-3.4,2.2-5.6,3.1-3.5,1.5-7.1,2.6-10.8,3.2-2.3.4-4.2.5-5.7.4-.5,0-.9-.2-1.4-.3,0,0-.3-.2-.7-.5.2-.3.7-.6,1.5-1.1,1.1-.6,2.7-1.2,4.6-1.8,3.7-1.2,7.4-2.2,11.2-2.8,1.4-.2,3-.5,4.8-.7,0,0,.8,0,2.3-.2.1.2,0,.4-.3.6ZM38.2,85.7c-.3,0-.8,0-1.6,0-.8,0-1.4,0-1.9-.1-.3,0-.5,0-.5-.3v-.3c1.1-2.5.9-5-.4-7.7-.7-1.5-1.7-2.9-3-4.2-1.9-2-4.1-3.7-6.8-5.1-.9-.5-3-1.7-6.4-3.5-2.5-1.4-4.4-2.4-5.5-3.1-1.3-.9-2.3-1.7-3.1-2.5-1.9-2-2.3-4.3-1.4-6.8.5-1.4,1.3-2.8,2.3-4.1,2.4-3.3,5.4-5.9,8.9-7.8,2-1.1,3.7-1.8,5.3-2.1,2.3-.4,4.1.1,5.5,1.6,1.1,1.1,1.7,2.4,1.9,4.1.3,2.4,0,4.6-1,6.7,0,.2-.2.4-.3.7-.2.3-.3.5-.3.7-.1.2-.3.6-.5,1.2-.1.3,0,.5,0,.7.2.2.5.1.8,0,.6-.4,1-.9,1.3-1.4.7-1.4,1.1-2.3,1.4-2.7.4-.8.7-1.7.9-2.5.5,0,.9-.2,1.3-.4.5-.2.9-.4,1.4-.6.6-.2,1.3-.4,2.1-.6,2.5-.4,5.7-.8,9.6-1.2,0,0,.3,0,.8,0,0,.4-.1,1-.3,1.9-2.1,7.7-3.3,12.2-3.6,13.5-1.4,5.4-3,12.3-4.8,20.7-.4,1.9-.7,3.7-1,5.5-.3,0-.6,0-.9,0Z" fill="#1d1d1b"/><path d="M84.9,93.1c-.7.2-1.3,0-1.9-.7-.3-.3-.6-.7-.8-1.2-.2-.5-.4-1-.5-1.7-.5-1.8-.6-4-.6-6.6,0-3.4.6-7.7,1.5-12.7,1-5.5,2.4-11.1,4.1-17.1,2.5-8.9,4.1-14.8,4.7-17.6,0-.2,0-.4,0-.6.2-1.5.4-2.7.5-3.6,0-.4,0-.8,0-1.3-.1-.4-.3-.6-.6-.8-.3-.1-.6,0-1,.2-1,.6-1.5,1.5-1.6,2.5,0,.3.1.6.3.7.3.1.5.3.4.7,0,.9-.1,1.9-.4,2.9,0,.1-1,3.4-2.8,9.9-1.4,4.6-2.8,9.1-4.4,13.5,0,0-.2.5-.6,1.4-.6-.2-1-.3-1.3-.3-1.9-.4-3.7-.2-5.4.8-1.2.7-2.2,1.6-3.1,2.6-1.1,1.3-2,2.7-2.8,4.4,0,.2-.2.3-.3.5-.7,1.5-1.6,2.6-2.7,3.4-1.1.8-1.9.6-2.5-.5-.3-.5-.5-1.1-.6-1.9-.2-1.2-.1-2.6.2-4.1,0-.4.1-.8.3-1.3.1-.5.2-1,.3-1.5,0-.5.2-1,.3-1.3,0-.4,0-.7,0-1s0-.4-.2-.5c-.1-.1-.4-.1-.6,0-.4.1-.7.4-1,.8-.7,1-1.2,1.8-1.4,2.3-.4.7-1,1.9-1.8,3.4-.8,1.5-1.4,2.7-1.8,3.5-.7,1.3-1.7,3-3,5.1-.3.6-.7,1-1,1.2l-.3-.5v-1.7c.2-1.4.4-2.5.7-3.3.2-.8.5-1.9,1-3.4.4-1.5.7-2.5.9-3.1.2-.7.3-1.3.3-1.8,0-.3-.1-.6-.3-.7-.2-.1-.5-.1-.8,0-.2.1-.3.2-.4.3-.7.7-1.2,1.5-1.5,2.4-.2.5-.2.8,0,1,.2.3.2.8,0,1.4-1.1,3.2-1.9,5.8-2.3,7.9-.3,1.6-.3,2.8-.2,3.6.2.8.5,1.3,1,1.5.5.2,1,0,1.7-.4.6-.5,1.2-1,1.6-1.6,1-1.4,1.8-2.6,2.4-3.6.1-.2,1.2-2.2,3.2-6.1,0-.1.1-.2.2-.4,0-.1.2-.2.2-.3,0,2.7,0,4.2,0,4.6,0,.7.3,1.5.6,2.2.8,1.8,2.2,2.2,4.1,1.3.6-.3,1.1-.7,1.7-1.3.3-.3.5-.5.8-.8-.1,1-.2,2,0,2.8.1,1.5.6,2.7,1.5,3.5.6.6,1.4.8,2.2.7.7-.1,1.4-.4,1.9-.8,1-.7,1.9-1.7,2.8-2.8,1.2-1.5,2.3-3.2,3.4-5.3,0,0,.3-.5.8-1.3h0c-.9,5.5-1.4,8.4-1.4,8.7-.6,3.4-.7,6.9-.5,10.3.1,1.6.4,2.9.8,4,.5,1.2,1.3,2.1,2.3,2.6,1,.5,1.9.5,2.8,0,.9-.6,1.5-1.4,1.8-2.4,0,0,0-.3-.2-.8-.4,0-.6,0-.7,0ZM76.6,72c-.5.8-1.2,1.9-1.9,3-.3.4-.8.9-1.3,1.3-1,.8-1.8.7-2.5-.3-.3-.4-.5-.8-.5-1.2-.2-.8-.3-1.4-.3-1.9,0-1.7.4-3.2,1-4.6.7-1.6,1.8-2.8,3.3-3.5,1.7-1,3.6-1,5.7,0-1.1,2.8-2.2,5.2-3.5,7.3Z" fill="#1d1d1b"/><path d="M92.9,55.1c.3.2.7.1,1.2-.2.1,0,.2-.1.2-.2,1.1-1,1.9-2.1,2.3-3.5.2-.7,0-1.2-.5-1.5-.5-.3-1-.3-1.5,0-1.4,1.2-2.1,2.6-2.1,4.1,0,.6.2.9.5,1.1Z" fill="#1d1d1b"/><path d="M114.9,67.4c0,0-.2-.1-.4-.3-.2-.1-.6,0-1,.3-1.2.7-2.5.7-3.7,0,0-.2.3-.7.7-1.6.4-.9.6-1.4.6-1.6.4-1.5.4-2.8.2-3.9-.2-.8-.6-1.3-1.2-1.6-.6-.3-1.3-.2-2.1.2-.3.2-.6.3-.8.5-.7.7-1.2,1.2-1.5,1.7-.4.6-.8.9-1.2,1.1-.6.3-1.2.8-1.7,1.3-1.3,1.4-2.3,3-3,4.7,0,0,0,0-.1,0-.3.2-.4.3-.5.3-3.2,2.5-5.1,4-5.7,4.5-.5.5-1.1.8-1.8,1-1.5.6-2.5.1-3-1.4-.2-.6-.3-1.2-.3-1.9,0-1.6.1-3.2.5-4.7.2-.7.4-1.5.8-2.5.2-.6.6-1.1,1.2-1.4.6-.3,1.1-1,1.4-2.1,0-.2,0-.4-.2-.6-.2-.2-.4-.3-.6-.2-.5.1-.9.3-1.1.5-.8.7-1.4,1.4-1.8,1.9-2.5,3.8-3.6,8-3.4,12.7,0,1.1.4,2,1,2.9.6.7,1.3,1.1,2.2,1.2.7,0,1.4,0,2-.4,1.1-.6,1.9-1,2.4-1.4,1.9-1.4,3.9-3.1,6-5.1,0,.4,0,.7,0,1.1,0,.7,0,1.5.3,2.3.2.8.6,1.3,1.2,1.6.6.3,1.2.3,2,0,.4-.2.9-.4,1.4-.7.4-.3.9-.8,1.4-1.3,1-1,2-2.3,3.1-4.1,0,0,.1-.1.2-.3,0-.1.1-.2.2-.3,0-.1.2-.2.2-.3h3.3c.6-.1,1.2-.4,1.7-.8.7-.6,1-1,.9-1.3,0-.2,0-.4,0-.4ZM104.6,72.4c-.7.6-1.3.8-1.8.6-.5-.2-.8-.7-.9-1.5-.3-2.1.2-3.9,1.4-5.4.4-.6,1-.8,1.5-.8.3,1.4,1.1,2.6,2.4,3.7-.7,1.4-1.6,2.5-2.6,3.4ZM108.3,66.6c-.3,0-.7-.3-1.1-1.1-.5-.8-.7-1.3-.7-1.6-.2-.4,0-.9.9-1.6.3-.4.6-.5,1-.3.1.1.3.3.4.5.2.4,0,1.7-.5,4Z" fill="#1d1d1b"/></g></svg>